<svg xmlns="http://www.w3.org/2000/svg" xmlns:xlink="http://www.w3.org/1999/xlink" width="235" height="144" viewBox="0 0 235 144">
  <defs>
    <clipPath id="clip-aok">
      <rect width="235" height="144"/>
    </clipPath>
  </defs>
  <g id="aok" clip-path="url(#clip-aok)">
    <g id="Gruppe_283" data-name="Gruppe 283" transform="translate(-32.568 -9.999)" opacity="0.85">
      <g id="Gruppe_282" data-name="Gruppe 282">
        <path id="Pfad_1445" data-name="Pfad 1445" d="M193.552,79.794l24.516,26.989h-7.884l-21.4-23.538v23.57h-5.753V57.272h5.709V76.646l20.777-19.475,7.859,0-23.7,22.479-.129.139ZM128.87,82a25.949,25.949,0,1,0,25.948-25.959A25.955,25.955,0,0,0,128.87,82Zm25.948,20.27A20.268,20.268,0,1,1,175.08,82a20.265,20.265,0,0,1-20.262,20.27ZM126.45,57.278v49.54h-5.7V94.452H98.914l-9.647,12.353h-7.2L120.75,57.27l5.7.008Zm-5.7,31.976V87.446L120.739,66.5,102.972,89.254ZM172,77.311l-1.8,5.874A5.614,5.614,0,0,1,160.5,84.9l-5,2.858v6.679h12.683l-1.168,1.38h-24.4l-1.165-1.38h12.68V87.759l-4.964-2.839a5.614,5.614,0,0,1-9.68-1.735l-1.8-5.874,5.956-1.434a5.608,5.608,0,0,1,6.247,7.869l4.243,2.43V78.71a5.613,5.613,0,0,1-3.444-9.294l4.209-4.467,4.2,4.467a5.612,5.612,0,0,1-3.6,9.308v7.452l4.283-2.452a5.608,5.608,0,0,1,6.256-7.847l5.956,1.434Zm-25.116.442a4.151,4.151,0,0,0-3.08-.421l-4.273,1.028,1.29,4.213a3.976,3.976,0,0,0,.45,1,4.174,4.174,0,1,0,5.613-5.822Zm8.012-.423a4.176,4.176,0,0,0,3.662-6.174,3.991,3.991,0,0,0-.652-.885l-3-3.209-3.02,3.209a4.174,4.174,0,0,0,3.012,7.06Zm15.267,1.03-4.273-1.028a4.178,4.178,0,1,0,2.98,5.241l1.293-4.212Z" fill="#575757"/>
      </g>
    </g>
  </g>
</svg>
