<svg xmlns="http://www.w3.org/2000/svg" xmlns:xlink="http://www.w3.org/1999/xlink" width="227" height="144" viewBox="0 0 227 144">
  <defs>
    <clipPath id="clip-eon">
      <rect width="227" height="144"/>
    </clipPath>
  </defs>
  <g id="eon" clip-path="url(#clip-eon)">
    <g id="Gruppe_37" data-name="Gruppe 37" transform="translate(-23.576 -76.879)" opacity="0.95">
      <path id="Pfad_212" data-name="Pfad 212" d="M193.459,138.407c-6.014,0-12.812,6.433-16.572,6.433-2.216,0-2.291-2.359-2.291-3.056,0-1.606-.014-1.591-.014-1.591a9.945,9.945,0,0,0-3.848-.583,13.669,13.669,0,0,0-2.6.268c-.634.1-.747.33-.874.61-2.443,5.553-5.811,15.038-7.292,19.877v-.02c-.278,1.053-.493,1.68-.62,2.2l-.442,1.811c-.152.633-.14.942.392,1.215a9.173,9.173,0,0,0,3.608.973,4.16,4.16,0,0,0,3.292-1.156c.733-.817,2.428-2.727,4.639-5.184h.009c5.077-5.265,12.851-12.54,17.75-12.54,1.164,0,1.506.829,1.506,2,0,1.47-1.658,6.681-2.987,10.542h0c-.6,1.755-1.128,3.362-1.407,4.206a.915.915,0,0,0,.254.977,8.811,8.811,0,0,0,5.18,1.323c1.354,0,2.392-.191,2.937-1.62.254-.656.885-2.427,1.646-4.707h0c1.76-5.275,4.215-13.236,4.215-16.193C199.94,141.67,198.75,138.407,193.459,138.407Z" fill="#5f5f5f"/>
      <path id="Pfad_213" data-name="Pfad 213" d="M125.093,149.513a16.073,16.073,0,0,1-1.165,3.656c-.924,2.27-3.329,2.637-5.038,2.637-2.545,0-3.418-.914-3.418-2.36a10.694,10.694,0,0,1,1.064-3.332c1.152-2.627,3.2-2.915,5.229-2.915,1.722,0,3.329.715,3.329,2.314" fill="#5f5f5f"/>
      <path id="Pfad_214" data-name="Pfad 214" d="M106.95,158.172c-2.67,0-6.849.408-6.849.408a4.984,4.984,0,0,1-2.232,1.627H97.8a8.036,8.036,0,0,1-8.078.136,7.269,7.269,0,0,1-3.74-5.625c0-.37.482-.309,1.114-.3,0,0,7.912.165,11.85.165h3.925c5.609,0,10.647-1.622,10.647-9.828,0-3.841-.9-14.311-7.494-14.311-7.33,0-32.449,9.732-32.449,22.749A10.192,10.192,0,0,0,76.73,160.2h0c4.027,4.212,11.443,7.115,19.392,7.115,7.563,0,16.5-4.307,17.219-7.115h.011a.677.677,0,0,0,.025-.224C113.381,158.5,109.558,158.172,106.95,158.172ZM89.416,147.108c.747-.749,8.228-7.245,12.5-7.245,1.3,0,1.38,2.365,1.38,4.038,0,3.13-.3,3.669-3.7,3.669H90.012C89.265,147.57,88.858,147.662,89.416,147.108Z" fill="#5f5f5f"/>
      <path id="Pfad_215" data-name="Pfad 215" d="M159.91,144.145c0-5.785-6.585-6.618-11.9-6.618-12.875,0-16.629,7.242-17.528,9.4-2.077,5.07-4.6,10.414-4.6,13.331v-.046h-.04c.1,6.318,7.787,6.45,11.243,6.45,6.293,0,11.963-.132,16.452-6.1h0c.015-.351.03-.146.045-.168s.04-.184.06-.184h0a19.23,19.23,0,0,0,1.615-2.59C156.39,155.444,159.91,147.71,159.91,144.145Zm-16.257,15.138a3.885,3.885,0,0,1-2.823.739c-1.368,0-2.406.093-2.406-1.389,0-2.169,1.494-9.977,3.747-13.1a3.555,3.555,0,0,1,2.824-.97c2.265,0,2.356.415,2.356,1.617,0,1.687-1.709,11.036-3.7,13.1Z" fill="#5f5f5f"/>
    </g>
  </g>
</svg>
