<svg xmlns="http://www.w3.org/2000/svg" xmlns:xlink="http://www.w3.org/1999/xlink" width="269" height="144" viewBox="0 0 269 144">
  <defs>
    <clipPath id="clip-fanuc">
      <rect width="269" height="144"/>
    </clipPath>
  </defs>
  <g id="fanuc" clip-path="url(#clip-fanuc)">
    <g id="g9816" transform="translate(-2.445 -77.876)" opacity="0.8">
      <path id="path9802" d="M93.762,135.459H89.879L78.334,161.453l-.349.769h7.768l2.272-5.352H99.536l2.272,5.352h7.767L97.646,135.459Zm0,17.109H89.879l3.883-9.1,3.918,9.1H93.762" fill="#535353" fill-rule="evenodd"/>
      <path id="path9804" d="M60.213,140.812H78.684v-5.353H52.445v26.763h7.768V150.433H75.992v-5.068H60.213v-4.553" fill="#535353" fill-rule="evenodd"/>
      <path id="path9806" d="M137.6,153.652l-14.974-18.193h-7.486v26.763h7.486V145.08l13.89,17.142h8.571V135.459H137.6v18.193" fill="#535353" fill-rule="evenodd"/>
      <path id="path9808" d="M203.721,158.759a7.608,7.608,0,0,1-6.262-2.589,10.937,10.937,0,0,1-2.17-7.311,11.83,11.83,0,0,1,2.03-7.207c1.364-1.855,3.5-2.694,6.4-2.694,2.8.035,4.793.736,5.912,2.169a12.331,12.331,0,0,1,2.308,5.038l9.132-.035a12.247,12.247,0,0,0-5-8.431q-4.143-2.938-12.071-3.045c-5.982-.034-10.355,1.26-13.155,3.885a13.347,13.347,0,0,0-4.128,10.32c.035,5.317,1.715,8.991,5.073,11.019A23.423,23.423,0,0,0,204,163.062q7.925.1,12.071-3.045a12.857,12.857,0,0,0,5-8.5h-9.132c-.839,4.793-3.567,7.208-8.22,7.242" fill="#535353" fill-rule="evenodd"/>
      <path id="path9810" d="M173.39,152.532a4.516,4.516,0,0,1-2.135,4.023,10.8,10.8,0,0,1-10.566.1,4.436,4.436,0,0,1-2.345-4.128V135.459h-7.766v17.706a7.246,7.246,0,0,0,1.575,4.793A11.241,11.241,0,0,0,156.034,161a19.214,19.214,0,0,0,4.973,1.6,32.024,32.024,0,0,0,4.864.492,29.4,29.4,0,0,0,4.617-.422,19.994,19.994,0,0,0,5.038-1.574,11.958,11.958,0,0,0,3.989-3.079,7.123,7.123,0,0,0,1.643-4.862v-17.7h-7.765v17.073" fill="#535353" fill-rule="evenodd"/>
    </g>
  </g>
</svg>
