<?xml version="1.0" encoding="UTF-8"?>
<svg xmlns="http://www.w3.org/2000/svg" xmlns:xlink="http://www.w3.org/1999/xlink" width="330" height="144" viewBox="0 0 330 144">
  <defs>
    <clipPath id="clip-path">
      <rect id="Rechteck_18240" data-name="Rechteck 18240" width="230.512" height="45.418" transform="translate(0 0)" fill="none"></rect>
    </clipPath>
    <clipPath id="clip-otto">
      <rect width="330" height="144"></rect>
    </clipPath>
  </defs>
  <g id="otto" clip-path="url(#clip-otto)">
    <g id="Gruppe_10325" data-name="Gruppe 10325" transform="translate(50 49.291)" opacity="0.91">
      <g id="Gruppe_10324" data-name="Gruppe 10324" clip-path="url(#clip-path)">
        <path id="Pfad_3015" data-name="Pfad 3015" d="M58.565,0,51.38,1.582,46.952,25.17c-1.186,6.425.46,9.174,6.235,9.174a24.8,24.8,0,0,0,5.514-.678l.632-5.512a14.633,14.633,0,0,1-3.343.362c-2.212,0-2.627-.83-2.035-4.068L55.99,13.6a8.532,8.532,0,0,0,.09-1.446,4.76,4.76,0,0,0,1.446.227H62.27l1.085-5.378H58.294a3.416,3.416,0,0,0-1.265.226,5.821,5.821,0,0,0,.453-1.355ZM42.025.136l-7,1.446-.859,4.564a3.084,3.084,0,0,0,0,1.084A3.019,3.019,0,0,0,32.946,7h-2.8l-1.088,5.337H31.95a4.194,4.194,0,0,0,1.265-.226,6.247,6.247,0,0,0-.542,1.582L30.549,25.174c-1.242,6.425.37,9.174,6.146,9.174a24.783,24.783,0,0,0,5.512-.678l.633-5.512a14.645,14.645,0,0,1-3.345.362c-2.214,0-2.626-.83-2.033-4.068l2.033-10.845a3.936,3.936,0,0,0,0-1.491,5.29,5.29,0,0,0,1.446.226H45.46L46.545,7.01h-4.7a5.2,5.2,0,0,0-1.31.226A6.6,6.6,0,0,0,40.9,6.107ZM145.6,6.327c-3.2.1-5.767,2.724-8.268,7.683h-.542a55.636,55.636,0,0,0,2.033-7h-6.552c-.541,3.455-1.55,9.01-2.3,12.789l-2.711,14.008h6.733l1.129-5.829c1.781-9.068,6.5-16.109,10.439-14.867L147,6.468a6.642,6.642,0,0,0-1.406-.142Zm78.583.091c-4.1,0-7.477,2.257-10.122,7.545l-.542-.045a49.2,49.2,0,0,0,1.808-6.913h-6.643c-.538,3.4-1.44,8.192-2.3,12.833l-4.565,24.04h6.734l1.491-8.044a10.981,10.981,0,0,0,.136-1.942,13.331,13.331,0,0,0,3.118.406c11.766,0,17.217-9.375,17.217-19.521-.008-5.721-2.23-8.36-6.331-8.36ZM16.132,6.463C7.5,6.463,0,13.537,0,24.763c0,5.884,3.1,9.58,10.439,9.58,8.419,0,16.222-7.057,16.222-18.12,0-5.559-3.025-9.761-10.528-9.761Zm62.044,0c-8.636,0-16.132,7.074-16.132,18.3,0,5.884,3.144,9.58,10.484,9.58,8.422,0,16.178-7.057,16.178-18.12,0-5.559-3.028-9.761-10.53-9.761Zm83.6,0c-8.637,0-16.132,7.074-16.132,18.3,0,5.884,3.142,9.58,10.484,9.58,8.419,0,16.177-7.057,16.177-18.12,0-5.559-3.029-9.761-10.529-9.761Zm-45.053.045c-11.768,0-17.218,9.375-17.218,19.521,0,5.72,2.225,8.406,6.326,8.406,5.021,0,8.426-4.212,10.53-8.044l.587.045a42.75,42.75,0,0,0-2.214,6.373c-1.189,5.128-3.875,6.733-8.948,6.733a20.39,20.39,0,0,1-7.5-1.129l-1.492,5.874a24.909,24.909,0,0,0,7.772,1.129c10.472,0,15.182-4.4,16.585-11.794l5.061-26.3a49.5,49.5,0,0,0-9.489-.815Zm59.422.5-.949,5.333h2.847a4,4,0,0,0,1.31-.27,6.742,6.742,0,0,0-.587,1.672l-2.3,11.749c-.972,5.236.6,8.948,5.784,8.948,5.128,0,8.641-4.189,11.071-8.993l.542.045a43.2,43.2,0,0,0-2.575,8.315h6.552c.541-3.239,1.649-9.119,2.35-12.789L202.857,7.01h-10.67l-.993,5.331h2.892a4.453,4.453,0,0,0,1.355-.27,5.812,5.812,0,0,0-.632,1.716c-1.189,6.26-6.008,14.687-9.626,14.687-1.725,0-2.273-1.364-1.627-4.655l3.209-16.81Zm-60.6,4.925a12.214,12.214,0,0,1,3.028.361l-.317,1.718c-1.079,5.666-5.885,14.46-9.716,14.46-1.349,0-2.078-1.061-2.078-3.706,0-5.615,2.879-12.836,9.086-12.836Zm-100.452.408c3.131,0,4.429,1.669,4.429,4.746,0,5.991-3.332,11.341-8.134,11.341-3.131,0-4.338-1.831-4.338-4.744,0-5.348,3.024-11.343,8.043-11.343m62.09,0c3.131,0,4.428,1.669,4.428,4.746,0,5.991-3.377,11.341-8.179,11.341-3.131,0-4.293-1.831-4.293-4.744,0-5.348,3.025-11.343,8.044-11.343m83.6,0c3.131,0,4.429,1.669,4.429,4.746,0,5.991-3.376,11.341-8.179,11.341-3.131,0-4.293-1.831-4.293-4.744,0-5.348,3.022-11.343,8.041-11.343Zm60.688,0c1.3,0,2.079,1.061,2.079,3.706,0,5.612-2.885,12.878-9.038,12.878a10.757,10.757,0,0,1-2.983-.5l.317-1.716c1.077-5.561,5.791-14.368,9.623-14.368Z" fill="#555" fill-rule="evenodd"></path>
      </g>
    </g>
  </g>
</svg>
