<svg xmlns="http://www.w3.org/2000/svg" xmlns:xlink="http://www.w3.org/1999/xlink" width="288" height="144" viewBox="0 0 288 144">
  <defs>
    <clipPath id="clip-siemens">
      <rect width="288" height="144"/>
    </clipPath>
  </defs>
  <g id="siemens" clip-path="url(#clip-siemens)">
    <g id="Ebene_1" data-name="Ebene 1" transform="translate(-782.786 -808.71)" opacity="0.9">
      <path id="Pfad_1421" data-name="Pfad 1421" d="M1018.271,866.856v5.58a22.253,22.253,0,0,0-7.716-1.643,6.187,6.187,0,0,0-3.2.725,2.094,2.094,0,0,0-1.207,1.775c0,.931.9,1.758,2.718,2.5l5.246,2.553c4.241,2.022,6.346,4.707,6.346,8.079a7.878,7.878,0,0,1-3.369,6.7c-2.236,1.672-5.246,2.5-8.993,2.5a41.462,41.462,0,0,1-4.661-.23,35.754,35.754,0,0,1-4.723-.889v-5.847a27.709,27.709,0,0,0,8.8,1.643c3.154,0,4.723-.914,4.723-2.759,0-.918-.642-1.659-1.948-2.24l-5.826-2.483a12,12,0,0,1-4.793-3.545,8.016,8.016,0,0,1-1.552-4.867,7.4,7.4,0,0,1,3.236-6.243,14.384,14.384,0,0,1,8.614-2.355,32.156,32.156,0,0,1,3.982.292q2.242.3,4.315.754Z" fill="#6b6b6b" fill-rule="evenodd"/>
      <path id="Pfad_1422" data-name="Pfad 1422" d="M853.248,866.856v5.58a22.237,22.237,0,0,0-7.713-1.643,6.178,6.178,0,0,0-3.2.725,2.093,2.093,0,0,0-1.206,1.775c0,.931.914,1.758,2.73,2.5l5.246,2.553q6.338,3.033,6.333,8.079a7.909,7.909,0,0,1-3.356,6.7c-2.252,1.672-5.246,2.5-9,2.5a41.563,41.563,0,0,1-4.666-.23,36.359,36.359,0,0,1-4.719-.889v-5.847a27.826,27.826,0,0,0,8.8,1.643c3.154,0,4.723-.914,4.723-2.759,0-.918-.639-1.659-1.932-2.24l-5.825-2.483a11.753,11.753,0,0,1-4.79-3.542,7.92,7.92,0,0,1-1.556-4.867,7.377,7.377,0,0,1,3.24-6.243,14.308,14.308,0,0,1,8.6-2.355,32.551,32.551,0,0,1,3.994.292C850.431,866.3,851.868,866.551,853.248,866.856Z" fill="#6b6b6b" fill-rule="evenodd"/>
      <path id="Pfad_1423" data-name="Pfad 1423" d="M859.26,866.333H867.8V895.1H859.26Z" fill="#6b6b6b" fill-rule="evenodd"/>
      <path id="Pfad_1424" data-name="Pfad 1424" d="M895.331,866.333v5.32h-12.7v6.378h11.011v4.793H882.636v6.7H895.59v5.58H874.413V866.333Z" fill="#6b6b6b" fill-rule="evenodd"/>
      <path id="Pfad_1425" data-name="Pfad 1425" d="M935.22,866.333V895.1h-7.976V876.125l-8.276,19.234h-4.925l-7.96-19.234V895.1h-5.769V866.333h10.43l7.12,17.608,7.449-17.608Z" fill="#6b6b6b" fill-rule="evenodd"/>
      <path id="Pfad_1426" data-name="Pfad 1426" d="M962.735,866.333v5.32H950.109v6.378H961.12v4.793H950.109v6.7h12.885v5.58H941.817V866.333Z" fill="#6b6b6b" fill-rule="evenodd"/>
      <path id="Pfad_1427" data-name="Pfad 1427" d="M992.716,866.333V895.1h-9.065l-10.169-18.443V895.1h-5.765V866.333h9.327l9.907,18.131V866.333Z" fill="#6b6b6b" fill-rule="evenodd"/>
    </g>
  </g>
</svg>
