<?xml version="1.0" encoding="UTF-8"?>
<svg xmlns="http://www.w3.org/2000/svg" xmlns:xlink="http://www.w3.org/1999/xlink" width="335" height="144" viewBox="0 0 335 144">
  <defs>
    <clipPath id="clip-path">
      <rect id="Rechteck_18227" data-name="Rechteck 18227" width="235.46" height="42.646" fill="none"></rect>
    </clipPath>
    <clipPath id="clip-t-systems">
      <rect width="335" height="144"></rect>
    </clipPath>
  </defs>
  <g id="t-systems" clip-path="url(#clip-t-systems)">
    <g id="Gruppe_10304" data-name="Gruppe 10304" transform="translate(50 50.678)" opacity="0.85">
      <rect id="Rechteck_18222" data-name="Rechteck 18222" width="6.869" height="6.857" transform="translate(0 15.561)" fill="#515151"></rect>
      <rect id="Rechteck_18223" data-name="Rechteck 18223" width="6.858" height="6.857" transform="translate(20.928 15.562)" fill="#515151"></rect>
      <rect id="Rechteck_18224" data-name="Rechteck 18224" width="6.858" height="6.857" transform="translate(41.512 15.562)" fill="#515151"></rect>
      <rect id="Rechteck_18225" data-name="Rechteck 18225" width="6.858" height="6.857" transform="translate(62.105 15.562)" fill="#515151"></rect>
      <g id="Gruppe_10303" data-name="Gruppe 10303" transform="translate(0 0.001)">
        <g id="Gruppe_10302" data-name="Gruppe 10302" clip-path="url(#clip-path)">
          <path id="Pfad_2968" data-name="Pfad 2968" d="M27.455,0H.334L0,11.934l1.8.313C2.138,8.725,3.07,6.114,4.579,4.412a8.8,8.8,0,0,1,6.611-2.8V26.594c0,2.181-.3,3.6-.941,4.255a4.35,4.35,0,0,1-2.754,1.026c-.381.029-1.037.049-1.961.049v1.912H22.269V31.924c-.921,0-1.577-.019-1.961-.049a4.373,4.373,0,0,1-2.756-1.026c-.637-.655-.95-2.074-.95-4.255V1.625a8.719,8.719,0,0,1,6.618,2.8q2.278,2.549,2.773,7.833l1.8-.313Z" transform="translate(0 0)" fill="#515151"></path>
          <path id="Pfad_2969" data-name="Pfad 2969" d="M93.731,11.993a18.2,18.2,0,0,0-2.292-6.445A6.711,6.711,0,0,0,85.7,2.231a5.208,5.208,0,0,0-3.585,1.291,5.306,5.306,0,0,0-1.774,4.157,5.288,5.288,0,0,0,1.911,4.3A15.553,15.553,0,0,0,86.765,14.1a28.553,28.553,0,0,1,6.574,2.934A8.581,8.581,0,0,1,96.9,24.374a10.293,10.293,0,0,1-2.92,7.472,8.873,8.873,0,0,1-6.623,2.8,9.853,9.853,0,0,1-3.9-.763,18.343,18.343,0,0,1-2.508-1.408,2.125,2.125,0,0,0-1.078-.362,1.525,1.525,0,0,0-1.215.666c-.156.225-.372.577-.646,1.078h-1.5V22.046h1.558a19.675,19.675,0,0,0,2.371,6.827,7.637,7.637,0,0,0,6.672,3.99,5.867,5.867,0,0,0,4.02-1.408,6.321,6.321,0,0,0,2.034-4.972,5.994,5.994,0,0,0-3.155-5.588,41.368,41.368,0,0,0-5.526-2.1,14.521,14.521,0,0,1-5.026-2.7,8.1,8.1,0,0,1-2.675-6.445A8.885,8.885,0,0,1,79.7,2.623,8.3,8.3,0,0,1,85.462.51a9.7,9.7,0,0,1,3.634.713,21.16,21.16,0,0,1,2.322,1.262,1.779,1.779,0,0,0,.882.283c.509,0,1.009-.508,1.509-1.526h1.343v10.75Z" transform="translate(-1.499 -0.01)" fill="#515151"></path>
          <path id="Pfad_2970" data-name="Pfad 2970" d="M98.661,11.563H108.87V13.09h-.882c-1.323,0-1.989.352-1.989,1.046a4.113,4.113,0,0,0,.334,1.34L111.24,28.25,115.508,16.4a6.114,6.114,0,0,0,.451-1.907c0-.939-.716-1.408-2.157-1.408h-1.078V11.568h8.034v1.527h-.528a1.773,1.773,0,0,0-1.431.664,5.436,5.436,0,0,0-.814,1.6L109.87,37.111a11.869,11.869,0,0,1-2.536,4.372,4.927,4.927,0,0,1-3.537,1.389,4.611,4.611,0,0,1-3.018-1.027A3.97,3.97,0,0,1,99.3,38.695a2.94,2.94,0,0,1,.667-1.956,2.633,2.633,0,0,1,3.718-.212,2.606,2.606,0,0,1,.319.339,2.337,2.337,0,0,1,.431,1.388,2.363,2.363,0,0,1-2.059,2.386,1.92,1.92,0,0,0,1.51.626,3.244,3.244,0,0,0,2.459-1.125,13.424,13.424,0,0,0,2.127-4.323L109,34.294l-6.726-18.027a7.23,7.23,0,0,0-1.341-2.581,2.768,2.768,0,0,0-1.891-.577h-.4v-1.54h.019Z" transform="translate(-1.932 -0.227)" fill="#515151"></path>
          <path id="Pfad_2971" data-name="Pfad 2971" d="M135.9,11.553v7.121H134.42c-.794-4.128-2.7-6.177-5.712-6.177a3.609,3.609,0,0,0-2.635.98,3.237,3.237,0,0,0-1.048,2.451,3.025,3.025,0,0,0,1.46,2.647,11.4,11.4,0,0,0,2.606,1.078,21.144,21.144,0,0,1,5.46,2.335,6.371,6.371,0,0,1,2.675,5.321,7.075,7.075,0,0,1-2.323,5.467,7.2,7.2,0,0,1-5.026,1.771,8.225,8.225,0,0,1-3.253-.626,20.361,20.361,0,0,1-2.224-1.194,1.226,1.226,0,0,0-.618-.215q-.454,0-.882,1.526h-1.389V25.754H122.9a15.276,15.276,0,0,0,1.813,4.441,6.18,6.18,0,0,0,2.176,1.985,5.913,5.913,0,0,0,2.941.792,3.669,3.669,0,0,0,2.941-1.241,4.08,4.08,0,0,0,1.029-2.745,3.831,3.831,0,0,0-2.008-3.462,23.191,23.191,0,0,0-4.331-1.741,11.483,11.483,0,0,1-3.566-1.79,5.655,5.655,0,0,1-2.157-4.753,5.771,5.771,0,0,1,2.008-4.587,6.788,6.788,0,0,1,4.6-1.576,9.089,9.089,0,0,1,4.637,1.308,1.568,1.568,0,0,0,.716.265c.314,0,.558-.363.716-1.1H135.9Z" transform="translate(-2.38 -0.217)" fill="#515151"></path>
          <path id="Pfad_2972" data-name="Pfad 2972" d="M145.867,13.066V26.6a14.649,14.649,0,0,0,.363,3.844,2.27,2.27,0,0,0,2.322,1.887,2.381,2.381,0,0,0,2.322-1.643,9.72,9.72,0,0,0,.667-3.844v-.664h1.626v.909a9.093,9.093,0,0,1-1.411,5.37,5.011,5.011,0,0,1-4.38,1.936,5.282,5.282,0,0,1-4.262-1.643,5.672,5.672,0,0,1-1.244-2.982,29.117,29.117,0,0,1-.147-3.149V13.066h-3.537V11.687q3.393-.835,4.614-2.679a13.723,13.723,0,0,0,1.647-6.084h1.411V11.4h6.574v1.673h-6.569Z" transform="translate(-2.707 -0.058)" fill="#515151"></path>
          <path id="Pfad_2973" data-name="Pfad 2973" d="M172.931,22.631H159.538a19.433,19.433,0,0,0,.98,6.992,4.669,4.669,0,0,0,4.594,3.2,5.355,5.355,0,0,0,4.232-2,14.289,14.289,0,0,0,1.863-3.032l1.46.763q-3.085,6.177-8.327,6.182a8.257,8.257,0,0,1-6.319-2.631q-3.057-3.272-3.058-9.458a13.143,13.143,0,0,1,3.058-9.1,7.519,7.519,0,0,1,5.81-2.7q5.04,0,7.583,5.056a16.133,16.133,0,0,1,1.516,6.731m-4.516-1.711a15.787,15.787,0,0,0-.647-4.92q-1.176-3.419-3.683-3.413-2.821,0-4,4.2a15.553,15.553,0,0,0-.5,4.129Z" transform="translate(-3.035 -0.213)" fill="#515151"></path>
          <path id="Pfad_2974" data-name="Pfad 2974" d="M201.619,34.05V20.3c0-2.837-.2-4.666-.6-5.5a2.66,2.66,0,0,0-2.537-1.623,3.757,3.757,0,0,0-3.321,2.318,7.99,7.99,0,0,0-.911,2.768,33.933,33.933,0,0,0-.167,4.176v6.132c0,1.779.2,2.9.6,3.364a2.343,2.343,0,0,0,1.863.6h.716v1.506h-7.32V21.061a39.165,39.165,0,0,0-.147-4.343q-.5-3.537-3.086-3.529a3.653,3.653,0,0,0-3.281,2.367,8.1,8.1,0,0,0-.814,2.386,28.905,28.905,0,0,0-.244,4.51v6.132c0,1.809.186,2.933.549,3.364a2.512,2.512,0,0,0,1.939.6h.7v1.506H174.98V32.543h.784a2.386,2.386,0,0,0,1.863-.6c.412-.459.627-1.583.627-3.364v-11.6c0-1.751-.206-2.856-.627-3.315a2.459,2.459,0,0,0-1.863-.577h-.549V11.563l6.863-.331v3.99a6.858,6.858,0,0,1,1.343-2.151,5.8,5.8,0,0,1,4.4-1.988c2.635,0,4.536,1.477,5.722,4.439,1.44-2.964,3.449-4.439,6.054-4.439a5.469,5.469,0,0,1,4.947,2.581,6.915,6.915,0,0,1,1.049,3.052,25.883,25.883,0,0,1,.166,3.031V28.58c0,1.78.206,2.9.6,3.364a2.381,2.381,0,0,0,1.891.6h.548v1.506h-7.18Z" transform="translate(-3.427 -0.217)" fill="#515151"></path>
          <path id="Pfad_2975" data-name="Pfad 2975" d="M226.216,11.553v7.121h-1.478c-.794-4.128-2.7-6.177-5.723-6.177a3.573,3.573,0,0,0-2.625.98,3.238,3.238,0,0,0-1.049,2.451,3.026,3.026,0,0,0,1.461,2.647,11.4,11.4,0,0,0,2.606,1.078,21.052,21.052,0,0,1,5.457,2.338,6.365,6.365,0,0,1,2.675,5.321,7.074,7.074,0,0,1-2.322,5.467,7.183,7.183,0,0,1-5.027,1.771,8.238,8.238,0,0,1-3.252-.626,20.3,20.3,0,0,1-2.225-1.2,1.2,1.2,0,0,0-.618-.215q-.456,0-.882,1.526h-1.391V25.755h1.391a14.978,14.978,0,0,0,1.822,4.441,6.207,6.207,0,0,0,2.176,1.985,5.923,5.923,0,0,0,2.941.792,3.7,3.7,0,0,0,2.949-1.241,4.083,4.083,0,0,0,1.027-2.745,3.824,3.824,0,0,0-2.008-3.462,23.19,23.19,0,0,0-4.331-1.741,11.388,11.388,0,0,1-3.566-1.79,5.655,5.655,0,0,1-2.157-4.753,5.768,5.768,0,0,1,2.01-4.591,6.781,6.781,0,0,1,4.594-1.576,9.092,9.092,0,0,1,4.643,1.311,1.568,1.568,0,0,0,.716.265c.314,0,.558-.363.716-1.1h1.47Z" transform="translate(-4.149 -0.217)" fill="#515151"></path>
          <rect id="Rechteck_18226" data-name="Rechteck 18226" width="6.868" height="6.857" transform="translate(228.592 15.561)" fill="#515151"></rect>
        </g>
      </g>
    </g>
  </g>
</svg>
