<svg xmlns="http://www.w3.org/2000/svg" xmlns:xlink="http://www.w3.org/1999/xlink" width="293" height="144" viewBox="0 0 293 144">
  <defs>
    <clipPath id="clip-vodafone">
      <rect width="293" height="144"/>
    </clipPath>
  </defs>
  <g id="vodafone" clip-path="url(#clip-vodafone)">
    <g id="Gruppe_6" data-name="Gruppe 6" transform="translate(-779.795 -808.994)" opacity="0.75">
      <path id="Pfad_1" data-name="Pfad 1" d="M843.907,859.622a24.046,24.046,0,0,1,20.31-.175,22.55,22.55,0,0,0-13.932,3.879,20.617,20.617,0,0,0-8.663,12.024,16.459,16.459,0,0,0,.693,10.6,13.483,13.483,0,0,0,12.01,8.273,12.723,12.723,0,0,0,8.238-2.859,12.936,12.936,0,0,0,4.643-9.2,12,12,0,0,0-2.417-8.127,14.576,14.576,0,0,0-8.1-4.629,9.79,9.79,0,0,1,7.726-9.848,23.763,23.763,0,1,1-20.508.062Z" fill="#454545"/>
      <path id="Pfad_2" data-name="Pfad 2" d="M961.642,868.73a4.9,4.9,0,0,1,3.677-2.247,10.293,10.293,0,0,1,5.058.621c-.142,1.241-.333,2.475-.5,3.716-1.212-.464-2.723-.826-3.893-.09-.908.613-.84,1.815-.806,2.779,1.237-.008,2.475,0,3.716-.006v3.62q-1.852,0-3.7-.006-.009,6.859,0,13.714h-4.439c-.006-4.575,0-9.147-.006-13.72-.769.011-1.539.007-2.308.007q-.006-1.81,0-3.62c.769,0,1.54,0,2.312.006A8.418,8.418,0,0,1,961.642,868.73Z" fill="#454545"/>
      <g id="Gruppe_1" data-name="Gruppe 1">
        <path id="Pfad_3" data-name="Pfad 3" d="M934.658,866.855c1.488.01,2.978.006,4.465,0V890.83c-1.365,0-2.728-.01-4.092.006-.076-.446-.138-.894-.181-1.344-2.047,2.3-5.84,2.2-8.127.316a9.675,9.675,0,0,1-3.2-7.653A9.06,9.06,0,0,1,927.3,874.3a8.667,8.667,0,0,1,7.358-.746Q934.654,870.209,934.658,866.855Zm-4.524,10.493a4.975,4.975,0,0,0-2.193,3.618,8.154,8.154,0,0,0,.532,4.156,3.536,3.536,0,0,0,6.193.81c-.024-2.872,0-5.745-.012-8.617a5.337,5.337,0,0,0-4.52.033Z" fill="#454545"/>
      </g>
      <g id="Gruppe_2" data-name="Gruppe 2">
        <path id="Pfad_4" data-name="Pfad 4" d="M910.708,873.338a8.739,8.739,0,0,1,6.616.917,8.6,8.6,0,0,1,3.749,5.734,10.673,10.673,0,0,1-1.323,7.6,7.619,7.619,0,0,1-4.875,3.441,8.613,8.613,0,0,1-6.017-.847,8.165,8.165,0,0,1-3.583-4.481,10.656,10.656,0,0,1,.5-8.353A7.7,7.7,0,0,1,910.708,873.338Zm1.145,3.645a4.109,4.109,0,0,0-2.526,2.953,8.057,8.057,0,0,0,.24,4.987,3.706,3.706,0,0,0,2.4,2.312,3.468,3.468,0,0,0,3.533-.962,6.354,6.354,0,0,0,1.353-4.7,5.41,5.41,0,0,0-1.667-3.967,3.6,3.6,0,0,0-3.333-.623Z" fill="#454545"/>
      </g>
      <g id="Gruppe_3" data-name="Gruppe 3">
        <path id="Pfad_5" data-name="Pfad 5" d="M943.068,875.175a10.98,10.98,0,0,1,8.46-1.9,5.334,5.334,0,0,1,3.645,2.5,8.746,8.746,0,0,1,.939,4.826v10.234q-2.046-.008-4.09,0c-.045-.43-.1-.857-.175-1.281a6.218,6.218,0,0,1-8.59-.1,5.484,5.484,0,0,1-1.264-5.147,5.4,5.4,0,0,1,3.022-3.363,18.567,18.567,0,0,1,6.617-1.354,2.477,2.477,0,0,0-1.2-2.59c-2.014-.863-4.257.1-5.9,1.323C944.058,877.264,943.551,876.224,943.068,875.175Zm4.228,8.405a2.317,2.317,0,0,0-1.009,2.653,2.066,2.066,0,0,0,1.907,1.217,4.666,4.666,0,0,0,3.476-1.213c-.01-1.181,0-2.358-.006-3.539A11.837,11.837,0,0,0,947.3,883.58Z" fill="#454545"/>
      </g>
      <g id="Gruppe_4" data-name="Gruppe 4">
        <path id="Pfad_6" data-name="Pfad 6" d="M975.954,873.315a8.725,8.725,0,0,1,6.466.913,8.512,8.512,0,0,1,3.791,5.8,10.518,10.518,0,0,1-1.122,7.221,7.687,7.687,0,0,1-4.861,3.73,8.111,8.111,0,0,1-9.979-5.657,8.221,8.221,0,0,1-.179-.809,10.409,10.409,0,0,1,1.252-7.872A7.593,7.593,0,0,1,975.954,873.315Zm1.145,3.634a3.928,3.928,0,0,0-2.452,2.442,7.951,7.951,0,0,0-.054,5.233A4.264,4.264,0,0,0,976,886.69a3.515,3.515,0,0,0,4.508-.28,6.178,6.178,0,0,0,1.525-4.438,5.732,5.732,0,0,0-1.772-4.413,3.592,3.592,0,0,0-3.165-.61Z" fill="#454545"/>
      </g>
      <path id="Pfad_7" data-name="Pfad 7" d="M993.491,874.857a8.031,8.031,0,0,1,6.53-1.632,5.089,5.089,0,0,1,3.6,2.427,10.414,10.414,0,0,1,1.1,5.535v9.644c-1.488.006-2.976,0-4.464.006q-.006-4.825,0-9.652a5.174,5.174,0,0,0-.939-3.414,2.711,2.711,0,0,0-2.234-.935,5.1,5.1,0,0,0-3.419,1.706q0,6.147,0,12.294-2.226-.009-4.45,0v-17.33c1.355,0,2.711.006,4.066,0C993.358,873.952,993.424,874.4,993.491,874.857Z" fill="#454545"/>
      <g id="Gruppe_5" data-name="Gruppe 5">
        <path id="Pfad_8" data-name="Pfad 8" d="M1009.705,875.5a7.952,7.952,0,0,1,11.011-.415c2.07,2.163,2.489,5.34,2.4,8.213-3.745-.018-7.49-.006-11.233-.006a3.863,3.863,0,0,0,2.239,3.679,7.769,7.769,0,0,0,7.114-1.087c.351,1.223.814,2.409,1.147,3.638a12.239,12.239,0,0,1-6.222,1.7,8.384,8.384,0,0,1-6.343-2.313,9.617,9.617,0,0,1-2.393-7.533A9.107,9.107,0,0,1,1009.705,875.5Zm3.541,1.967a3.9,3.9,0,0,0-1.3,2.62h6.656a3.717,3.717,0,0,0-1.914-3.139,3.146,3.146,0,0,0-3.442.518Z" fill="#454545"/>
      </g>
      <path id="Pfad_9" data-name="Pfad 9" d="M886.029,873.506H890.8c1.39,3.554,2.8,7.1,4.2,10.656a8.042,8.042,0,0,0,.356.758q2.169-5.7,4.358-11.408c1.515-.01,3.03,0,4.546-.006q-3.535,8.656-7.054,17.317c-1.293.027-2.588,0-3.883.014C890.876,885.066,888.483,879.272,886.029,873.506Z" fill="#454545"/>
    </g>
  </g>
</svg>
